<svg xmlns="http://www.w3.org/2000/svg" width="280.521" height="47.5" viewBox="0 0 280.521 47.5">
  <g id="Group_5" data-name="Group 5" transform="translate(-473.96 -1057.024)">
    <g id="Group_16" data-name="Group 16">
      <text id="Health_UX_Kit_" data-name="Health UX Kit™" transform="translate(529.48 1094.024)" fill="#4287d9" font-size="40" font-family="Roboto-Bold, Roboto" font-weight="700" letter-spacing="-0.015em"><tspan x="0" y="0">Symptogram</tspan></text>
      <g id="Group_4" data-name="Group 4" transform="translate(475.46 1059.09)">
        <path id="Path_7" data-name="Path 7" d="M39.446,39.02l5.329,5.329,4.586,4.585ZM5,24.729A19.729,19.729,0,1,1,24.729,44.458,19.729,19.729,0,0,1,5,24.729Z" transform="translate(-5 -5)" fill="#fff" stroke="#000" stroke-linejoin="round" stroke-width="3"/>
        <g id="noun_Symptom_3202048" transform="translate(9.524 5.951)">
          <g id="Group_2" data-name="Group 2" transform="translate(0 0)">
            <g id="Group_1" data-name="Group 1">
              <path id="Path_2" data-name="Path 2" d="M42.781,11.722A1.368,1.368,0,0,1,41.6,13.077a2.708,2.708,0,0,0,2.421,1.5,2.738,2.738,0,1,0,0-5.475,2.675,2.675,0,0,0-2.305,1.3A1.336,1.336,0,0,1,42.781,11.722Z" transform="translate(-33.935 -7.198)" fill="#2b87e0"/>
              <path id="Path_3" data-name="Path 3" d="M28.081,37.991h-.173a1.354,1.354,0,1,1,0-2.709h.144l-.029-2.075a22.192,22.192,0,0,0,2.392.144,19.874,19.874,0,0,0,3.256-.259l.49-.086a1.227,1.227,0,1,0-.4-2.421l-.49.086a17.716,17.716,0,0,1-5.389.058,22.217,22.217,0,0,0-5.533,0,17.715,17.715,0,0,1-5.389-.058l-.49-.115a1.227,1.227,0,0,0-.4,2.421l.49.086a19.4,19.4,0,0,0,5.648.115l-.029,6.051-.144,1.787a1.351,1.351,0,0,1-.2,2.651l-.4,4.668a1.358,1.358,0,0,0,1.239,1.47h.115a1.373,1.373,0,0,0,1.354-1.239l.72-8.76h.519l.72,8.76a1.359,1.359,0,0,0,2.709-.231L28.052,39.2Z" transform="translate(-15.028 -22.459)" fill="#2b87e0"/>
              <path id="Path_4" data-name="Path 4" d="M21.6,70.61a.609.609,0,0,0,.605-.605A.629.629,0,0,0,21.6,69.4h-3a.644.644,0,0,0-.519.288l-1.354,2.132c-.058,0-.144-.029-.2-.029a1.509,1.509,0,1,0,1.268.663l1.153-1.873H21.6Z" transform="translate(-15 -50.122)" fill="#d34d5d"/>
              <path id="Path_5" data-name="Path 5" d="M63.667,51.632a.888.888,0,0,0-.288.029l-1.354-1.9a.566.566,0,0,0-.49-.259H58.105a.609.609,0,0,0-.605.605.629.629,0,0,0,.605.605h3.083l1.153,1.643a1.449,1.449,0,0,0-.231.778,1.527,1.527,0,0,0,3.055,0A1.471,1.471,0,0,0,63.667,51.632Z" transform="translate(-45.253 -35.956)" fill="#edc74c"/>
              <path id="Path_6" data-name="Path 6" d="M17.927,5.554a2.224,2.224,0,0,0,.432-.058L20,7.428a.6.6,0,0,0,.461.231h3.026a.609.609,0,0,0,.605-.605.629.629,0,0,0-.605-.605H20.751l-1.47-1.729a1.523,1.523,0,1,0-1.354.836Z" transform="translate(-15.997 -2.5)" fill="#6ad899"/>
            </g>
          </g>
        </g>
      </g>
    </g>
  </g>
</svg>
