<svg xmlns="http://www.w3.org/2000/svg" xmlns:xlink="http://www.w3.org/1999/xlink" width="333.734" height="236.159" viewBox="0 0 333.734 236.159">
  <defs>
    <linearGradient id="linear-gradient" x1="0.5" y1="1" x2="0.5" gradientUnits="objectBoundingBox">
      <stop offset="0" stop-color="gray" stop-opacity="0.251"/>
      <stop offset="0.54" stop-color="gray" stop-opacity="0.122"/>
      <stop offset="1" stop-color="gray" stop-opacity="0.102"/>
    </linearGradient>
    <linearGradient id="linear-gradient-2" x1="0.5" y1="1" x2="0.5" y2="0" xlink:href="#linear-gradient"/>
  </defs>
  <g id="undraw_medicine_b1ol" transform="translate(0.005 0.006)">
    <ellipse id="Ellipse_2" data-name="Ellipse 2" cx="29.398" cy="4.722" rx="29.398" ry="4.722" transform="translate(81.778 226.577)" fill="#fff" opacity="0.996"/>
    <ellipse id="Ellipse_3" data-name="Ellipse 3" cx="36.684" cy="4.722" rx="36.684" ry="4.722" transform="translate(234.296 226.709)" fill="#fff" opacity="0.996"/>
    <path id="Path_4" data-name="Path 4" d="M59.628,396.83h30.62v41.735H61.869c-.075.428-.148.86-.226,1.291h28.6v33.658c-.051-.015-.1-.033-.145-.051-.809-.32-1.611-.658-2.414-1.02l-.513-.232q-1.207-.57-2.414-1.207c-.281-.148-.561-.3-.839-.459a50.209,50.209,0,0,1-12.032-9.4c-.1-.1-.2-.205-.3-.3-.489-.531-.968-1.068-1.433-1.617l-.513-.6c-.549-.673-1.08-1.364-1.6-2.064-.075-.1-.148-.205-.226-.3a44.917,44.917,0,0,1-5.189-9.383c-.042-.1-.078-.208-.118-.3q-.622-1.6-1.1-3.228c-.139-.456-.272-.905-.386-1.379-.042-.139-.078-.275-.112-.41C59.2,434.866,59,427.918,59,421.018V418.6c0-2.791.033-5.6.081-8.405,0-.727.03-1.451.045-2.181q.063-2.779.181-5.557c.018-.516.042-1.029.069-1.542a8.732,8.732,0,0,1,.045-.887C59.495,398.957,59.555,397.892,59.628,396.83Z" transform="translate(-55.117 -294.798)" fill="#6c63ff" opacity="0.1"/>
    <path id="Path_5" data-name="Path 5" d="M123.7,193.678H106.9a127.324,127.324,0,0,1,8.934-12.3c2.5-3.065,5.129-6.052,7.862-8.93Z" transform="translate(-88.565 -138.114)" fill="#2b87e0" opacity="0.1"/>
    <path id="Path_6" data-name="Path 6" d="M91.924,247.09v43.886H61.4c0-.127.021-.256.03-.383.027-.347.054-.694.084-1.038.033-.4.069-.812.109-1.207s.081-.878.127-1.315.087-.881.139-1.318.1-.875.151-1.309.1-.875.16-1.309c.045-.362.094-.721.142-1.083.069-.51.142-1.023.22-1.53a1.412,1.412,0,0,1,.033-.226,104.36,104.36,0,0,1,2.248-11.018,81.487,81.487,0,0,1,3.786-11.163,83.8,83.8,0,0,1,5.7-10.97Z" transform="translate(-56.793 -190.235)" fill="#2b87e0" opacity="0.1"/>
    <path id="Path_7" data-name="Path 7" d="M186.8,160.659V202.4h65.4V160.659Zm0,43.026v35.843c.374.078.745.154,1.113.217.5.1,1,.184,1.509.259.1.015.2.03.3.039.2.033.4.06.6.087.5.069,1,.127,1.509.172.238.024.48.045.721.063l.582.045h0c.317.024.631.042.941.051.193,0,.386.018.585.024h2.151c.259,0,.519,0,.775-.024h.018a4.072,4.072,0,0,0,.54-.024,1.263,1.263,0,0,0,.151,0,3.117,3.117,0,0,0,.447-.021h.106l1.011-.078c.332-.03.667-.069,1-.106l.688-.081a60.181,60.181,0,0,0,8.282-1.762c6.1-1.7,12.068-4.082,18.166-5.826,7.884-2.248,16.594-3.352,24.212-.6V203.686Zm65.4-89.492V58.629a84.077,84.077,0,0,0-21.249,2.492c-16.561,4.161-31.42,13.185-44.152,24.71v28.36h3.283v1.288H186.8v43.892h65.4V115.482H203.56v-1.288Zm84-18.769a27.089,27.089,0,0,1-11.854-3.445c-7.045-3.832-12.672-9.748-18.959-14.741a87.047,87.047,0,0,0-45.886-18.232v55.188h93.363l.232-.244Zm8.505-1.509,9.018,9.9V91.321a35.78,35.78,0,0,0-9.006,2.583Zm9.018,154.513V203.686H334.512c-.051-.19-.1-.383-.163-.576.057.193.106.386.16.576H259.517v32.358c.712.528,1.415,1.083,2.112,1.647h0c.751.6,1.493,1.24,2.239,1.865l.751.622c.359.3.721.6,1.086.887q1.086.881,2.193,1.738c.365.3.739.573,1.11.857A151.221,151.221,0,0,0,287.6,255.82q2.181,1.207,4.4,2.356c.987.5,1.979,1,2.975,1.49q2.245,1.1,4.526,2.112h0a166.194,166.194,0,0,0,44.049,12.832q5.066.748,10.171,1.177V248.426h.3ZM259.517,115.482v43.889H353.74V115.482Zm0,45.177V202.4H353.74V160.659ZM361.053,91.267V105.2l11.51-12.629q-5.72-.923-11.51-1.318Zm0,69.407V202.4H452.7V160.659Zm91.308,91.067.323-48.056H361.053v72.581a164.348,164.348,0,0,0,17.71-.211h.1q4.224-.266,8.409-.772h.063a154.848,154.848,0,0,0,43.2-11.528m39.825-96.223c-.344-.812-.7-1.617-1.068-2.414-.682-1.509-1.4-2.975-2.145-4.441H460V202.4h18.078c-.009-11.815-3-23.883-7.706-34.88ZM460,203.7v41.334a59.213,59.213,0,0,0,12.494-16.85,57.927,57.927,0,0,0,5.569-24.489Zm0-55.188v10.861h6.481a117.659,117.659,0,0,0-6.472-10.876ZM397.852,99.455c-.477-.181-.953-.365-1.433-.543a130.825,130.825,0,0,0-15.48-4.652l-17.614,19.33h0l-.338.359.226.247H425.9A134.082,134.082,0,0,0,397.861,99.44ZM427.739,115.5h-65.4l-1.285,1.177v42.7h91.655V138.689a130.579,130.579,0,0,0-24.96-23.207Z" transform="translate(-144.359 -58.63)" fill="#2b87e0" opacity="0.1"/>
    <path id="Path_8" data-name="Path 8" d="M91.924,320.46v21.75H61.4c0-.127.021-.257.03-.383.027-.347.054-.694.084-1.038.033-.4.069-.812.109-1.207s.081-.878.127-1.315.087-.881.139-1.318.1-.875.151-1.309.1-.875.16-1.309c.045-.362.094-.721.142-1.083.069-.51.142-1.023.22-1.53a1.41,1.41,0,0,1,.033-.226,104.359,104.359,0,0,1,2.248-11.018Z" transform="translate(-56.793 -241.469)" fill="#6c63ff" opacity="0.1"/>
    <path id="Path_9" data-name="Path 9" d="M59.628,396.83h30.62v41.735H61.869c-.075.428-.148.86-.226,1.291h28.6v33.658c-.051-.015-.1-.033-.145-.051-.809-.32-1.611-.658-2.414-1.02l-.513-.232q-1.207-.57-2.414-1.207c-.281-.148-.561-.3-.839-.459a50.209,50.209,0,0,1-12.032-9.4c-.1-.1-.2-.205-.3-.3-.489-.531-.968-1.068-1.433-1.617l-.513-.6c-.549-.673-1.08-1.364-1.6-2.064-.075-.1-.148-.205-.226-.3a44.917,44.917,0,0,1-5.189-9.383c-.042-.1-.078-.208-.118-.3q-.622-1.6-1.1-3.228c-.139-.456-.272-.905-.386-1.379-.042-.139-.078-.275-.112-.41C59.2,434.866,59,427.918,59,421.018V418.6c0-2.791.033-5.6.081-8.405,0-.727.03-1.451.045-2.181q.063-2.779.181-5.557c.018-.516.042-1.029.069-1.542a8.732,8.732,0,0,1,.045-.887C59.495,398.957,59.555,397.892,59.628,396.83Z" transform="translate(-55.117 -294.798)" fill="#2b87e0" opacity="0.1"/>
    <path id="Path_10" data-name="Path 10" d="M162.583,179.812v37.6H139.56v-37.6h3.283V167.08h13.474v12.732Z" transform="translate(-97.119 -116.675)" fill="#6c63ff" opacity="0.1"/>
    <rect id="Rectangle_1" data-name="Rectangle 1" width="23.02" height="41.735" transform="translate(42.444 102.029)" fill="#6c63ff" opacity="0.1"/>
    <path id="Path_11" data-name="Path 11" d="M186.8,539.44h23.023v34.7a60.077,60.077,0,0,1-8.282,1.759l-.688.084c-.338.039-.673.072-1,.106s-.676.057-1.011.078h-.106c-.145,0-.3.018-.443.021h-.154c-.181,0-.362.018-.543.024h0c-.256.015-.513.018-.775.021h-2.136l-.582-.021c-.3,0-.628-.033-.941-.054h0l-.579-.042-.721-.066c-.507-.045-1.011-.1-1.509-.172l-.6-.084-.3-.042c-.5-.078-1-.163-1.509-.259-.371-.063-.739-.142-1.113-.217Z" transform="translate(-144.359 -394.381)" fill="#6c63ff" opacity="0.1"/>
    <rect id="Rectangle_2" data-name="Rectangle 2" width="18.983" height="42.043" transform="translate(190.398 58.695)" fill="#6c63ff" opacity="0.1"/>
    <path id="Path_12" data-name="Path 12" d="M474.806,338.19v41.738H380.58v-18h50.189v10.62h25.051V338.19Z" transform="translate(-265.422 -236.161)" fill="#6c63ff" opacity="0.1"/>
    <path id="Path_13" data-name="Path 13" d="M522.344,582.855h-.3v27.38q-5.1-.431-10.168-1.174A166.2,166.2,0,0,1,467.808,596.2q-6.073-2.733-11.9-5.968a151.843,151.843,0,0,1-18.6-12.162q-2.221-1.7-4.384-3.482c-1-.824-1.991-1.668-3-2.489-.7-.564-1.4-1.119-2.112-1.65V538.106h74.989c-.051-.193-.1-.386-.157-.576.057.19.112.383.163.576h19.228v44.731C522.145,582.84,522.245,582.849,522.344,582.855Z" transform="translate(-312.662 -393.048)" fill="#6c63ff" opacity="0.1"/>
    <path id="Path_14" data-name="Path 14" d="M875.59,207.413H863.22V203.57h5.545V192.12q.721.263,1.436.54v10.91h5.388Z" transform="translate(-616.699 -151.85)" fill="#6c63ff" opacity="0.1"/>
    <path id="Path_15" data-name="Path 15" d="M836.359,290.976H775.632l.021.015-.027-.015H764.36V248.933h3.192v31.076h14.587v-18.4h12.05V247.09h12.37v14.527h12.05v18.4h17.749Z" transform="translate(-547.666 -190.235)" fill="#6c63ff" opacity="0.1"/>
    <path id="Path_16" data-name="Path 16" d="M764.36,396.82v41.738h72V396.82ZM855.9,487.688l.1-33.037H836.359V439.867h-72v72.56a164.331,164.331,0,0,0,17.71-.211h.1q4.224-.265,8.409-.772h.063a154.849,154.849,0,0,0,43.2-11.528" transform="translate(-547.666 -294.791)" fill="#6c63ff" opacity="0.1"/>
    <path id="Path_17" data-name="Path 17" d="M1093.637,539.44h16.8a58.107,58.107,0,0,1-5.573,24.486,59.231,59.231,0,0,1-12.491,16.85v-26.55h1.267Z" transform="translate(-776.713 -394.381)" fill="#6c63ff" opacity="0.1"/>
    <path id="Path_18" data-name="Path 18" d="M1113.375,454.43h-16.8V419.55h9.093C1110.37,430.547,1113.36,442.615,1113.375,454.43Z" transform="translate(-779.646 -310.663)" fill="#6c63ff" opacity="0.1"/>
    <rect id="Rectangle_3" data-name="Rectangle 3" width="10.171" height="13.182" transform="translate(199.214 70.384)" fill="#6c63ff" opacity="0.1"/>
    <rect id="Rectangle_4" data-name="Rectangle 4" width="10.171" height="3.035" transform="translate(199.214 97.706)" fill="#6c63ff" opacity="0.1"/>
    <rect id="Rectangle_5" data-name="Rectangle 5" width="10.171" height="8.855" transform="translate(199.214 102.029)" fill="#6c63ff" opacity="0.1"/>
    <rect id="Rectangle_6" data-name="Rectangle 6" width="10.171" height="13.182" transform="translate(199.214 125.028)" fill="#6c63ff" opacity="0.1"/>
    <rect id="Rectangle_7" data-name="Rectangle 7" width="10.171" height="13.182" transform="translate(199.214 152.351)" fill="#6c63ff" opacity="0.1"/>
    <path id="Path_19" data-name="Path 19" d="M716.587,664.286a1.67,1.67,0,0,1,.3.018h-.3v3.062H706.42v-13.2h10.167Z" transform="translate(-507.206 -474.497)" fill="#6c63ff" opacity="0.1"/>
    <path id="Path_20" data-name="Path 20" d="M716.587,744.71v10.183q-5.1-.431-10.167-1.174V744.71Z" transform="translate(-507.206 -537.72)" fill="#6c63ff" opacity="0.1"/>
    <rect id="Rectangle_8" data-name="Rectangle 8" width="43.587" height="0.968" transform="translate(115.158 142.799)" fill="#6c63ff" opacity="0.1"/>
    <rect id="Rectangle_9" data-name="Rectangle 9" width="43.587" height="3.711" transform="translate(115.158 145.056)" fill="#6c63ff" opacity="0.1"/>
    <rect id="Rectangle_10" data-name="Rectangle 10" width="43.587" height="5.968" transform="translate(115.158 160.931)" fill="#6c63ff" opacity="0.1"/>
    <path id="Path_21" data-name="Path 21" d="M476.285,652.15v5.968H442.193q-2.221-1.7-4.387-3.482c-1-.824-1.988-1.668-3-2.486Z" transform="translate(-317.543 -473.086)" fill="#6c63ff" opacity="0.1"/>
    <path id="Path_22" data-name="Path 22" d="M536.416,712.219v5.962h-3.6q-6.067-2.737-11.9-5.971Z" transform="translate(-377.673 -515.026)" fill="#6c63ff" opacity="0.1"/>
    <rect id="Rectangle_11" data-name="Rectangle 11" width="8.581" height="8.581" transform="translate(234.408 106.075)" fill="#6c63ff" opacity="0.1"/>
    <rect id="Rectangle_12" data-name="Rectangle 12" width="8.581" height="8.581" transform="translate(48.623 66.096)" fill="#6c63ff" opacity="0.1"/>
    <rect id="Rectangle_13" data-name="Rectangle 13" width="8.581" height="8.581" transform="translate(48.623 86.027)" fill="#6c63ff" opacity="0.1"/>
    <rect id="Rectangle_14" data-name="Rectangle 14" width="8.581" height="8.581" transform="translate(48.623 105.958)" fill="#6c63ff" opacity="0.1"/>
    <rect id="Rectangle_15" data-name="Rectangle 15" width="8.581" height="8.581" transform="translate(48.623 125.885)" fill="#6c63ff" opacity="0.1"/>
    <rect id="Rectangle_16" data-name="Rectangle 16" width="8.581" height="8.581" transform="translate(48.623 145.816)" fill="#6c63ff" opacity="0.1"/>
    <rect id="Rectangle_17" data-name="Rectangle 17" width="8.581" height="8.581" transform="translate(48.623 165.747)" fill="#6c63ff" opacity="0.1"/>
    <rect id="Rectangle_18" data-name="Rectangle 18" width="8.581" height="8.581" transform="translate(267.164 106.075)" fill="#6c63ff" opacity="0.1"/>
    <rect id="Rectangle_19" data-name="Rectangle 19" width="8.581" height="8.581" transform="translate(234.408 127.24)" fill="#6c63ff" opacity="0.1"/>
    <rect id="Rectangle_20" data-name="Rectangle 20" width="8.581" height="8.581" transform="translate(267.164 127.24)" fill="#6c63ff" opacity="0.1"/>
    <rect id="Rectangle_21" data-name="Rectangle 21" width="8.581" height="8.581" transform="translate(234.408 148.402)" fill="#6c63ff" opacity="0.1"/>
    <rect id="Rectangle_22" data-name="Rectangle 22" width="8.581" height="8.581" transform="translate(267.164 148.402)" fill="#6c63ff" opacity="0.1"/>
    <rect id="Rectangle_23" data-name="Rectangle 23" width="8.581" height="8.581" transform="translate(234.408 169.566)" fill="#6c63ff" opacity="0.1"/>
    <rect id="Rectangle_24" data-name="Rectangle 24" width="8.581" height="8.581" transform="translate(267.164 169.566)" fill="#6c63ff" opacity="0.1"/>
    <rect id="Rectangle_25" data-name="Rectangle 25" width="8.581" height="8.581" transform="translate(234.408 190.731)" fill="#6c63ff" opacity="0.1"/>
    <rect id="Rectangle_26" data-name="Rectangle 26" width="8.581" height="8.581" transform="translate(267.164 190.731)" fill="#6c63ff" opacity="0.1"/>
    <path id="Path_23" data-name="Path 23" d="M775.83,707.863V702.33h8.577v4.746Z" transform="translate(-541.422 -490.437)" fill="#6c63ff" opacity="0.1"/>
    <path id="Path_24" data-name="Path 24" d="M65.24,357v4.909H94.605V357Zm2.927,4.6h-2.4v-4.3h2.414Zm2.924,0H68.676v-4.3H71.09Zm2.917,0H71.594v-4.3h2.414Zm2.924,0H74.52v-4.3h2.414Zm2.921,0H77.438v-4.3h2.414Zm2.924,0H80.361v-4.3h2.414Zm2.924,0H83.285v-4.3H85.7Zm2.921,0H86.206v-4.3h2.414Zm2.921,0H89.126v-4.3H91.54Zm2.921,0H92.047v-4.3H94.46Z" transform="translate(-59.474 -266.984)" fill="#6c63ff" opacity="0.1"/>
    <path id="Path_25" data-name="Path 25" d="M65.24,404.34v4.909H94.605V404.34Zm2.927,4.6h-2.4v-4.287h2.414Zm2.924,0H68.676v-4.287H71.09Zm2.917,0H71.594v-4.287h2.414Zm2.924,0H74.52v-4.287h2.414Zm2.921,0H77.438v-4.287h2.414Zm2.924,0H80.361v-4.287h2.414Zm2.924,0H83.285v-4.287H85.7Zm2.921,0H86.206v-4.287h2.414Zm2.921,0H89.126v-4.287H91.54Zm2.921,0H92.047v-4.287H94.46Z" transform="translate(-59.474 -300.042)" fill="#6c63ff" opacity="0.1"/>
    <path id="Path_26" data-name="Path 26" d="M65.24,451.7v4.918H94.605V451.7Zm2.927,4.6h-2.4v-4.29h2.414Zm2.924,0H68.676v-4.29H71.09Zm2.917,0H71.594v-4.29h2.414Zm2.924,0H74.52v-4.29h2.414Zm2.921,0H77.438v-4.29h2.414Zm2.924,0H80.361v-4.29h2.414Zm2.924,0H83.285v-4.29H85.7Zm2.921,0H86.206v-4.29h2.414Zm2.921,0H89.126v-4.29H91.54Zm2.921,0H92.047v-4.29H94.46Z" transform="translate(-59.474 -333.113)" fill="#6c63ff" opacity="0.1"/>
    <path id="Path_27" data-name="Path 27" d="M65.24,499.06v4.9H94.605v-4.9Zm2.927,4.6h-2.4v-4.293h2.414Zm2.924,0H68.676v-4.293H71.09Zm2.917,0H71.594v-4.293h2.414Zm2.924,0H74.52v-4.293h2.414Zm2.921,0H77.438v-4.293h2.414Zm2.924,0H80.361v-4.293h2.414Zm2.924,0H83.285v-4.293H85.7Zm2.921,0H86.206v-4.293h2.414Zm2.921,0H89.126v-4.293H91.54Zm2.921,0H92.047v-4.293H94.46Z" transform="translate(-59.474 -366.184)" fill="#6c63ff" opacity="0.1"/>
    <path id="Path_28" data-name="Path 28" d="M65.66,546.41c.118.462.25.923.389,1.379v-1.071h2.414v4.29H67.172c.039.1.078.208.118.3H94.9v-4.9Zm5.732,4.6H68.979v-4.29h2.414Zm2.917,0H71.9v-4.29H74.31Zm2.924,0h-2.42v-4.29h2.414Zm2.921,0H77.74v-4.29h2.414Zm2.924,0H80.664v-4.29h2.414Zm2.924,0H83.587v-4.29H86Zm2.921,0H86.508v-4.29h2.414Zm2.921,0H89.428v-4.29h2.414Zm2.921,0H92.349v-4.29h2.414Z" transform="translate(-59.767 -399.248)" fill="#6c63ff" opacity="0.1"/>
    <path id="Path_29" data-name="Path 29" d="M88.26,593.77c.075.1.148.205.226.3h1.6v2.061c.172.205.341.41.516.6V594.06h2.414v4.305h-.978c.1.1.19.205.3.3h18.353v-4.9Zm7.666,4.595H93.513v-4.287h2.414Zm2.924,0H96.436v-4.287H98.85Zm2.924,0H99.36v-4.287h2.414Zm2.921,0H102.28v-4.287h2.414Zm2.921,0H105.2v-4.287h2.414Zm2.921,0h-2.414v-4.287h2.414Z" transform="translate(-75.549 -432.32)" fill="#6c63ff" opacity="0.1"/>
    <path id="Path_30" data-name="Path 30" d="M141.65,641.12c.275.157.555.3.839.459v-.151H144.9v1.358l.513.238v-1.6h2.414v2.61a.753.753,0,0,0,.145.054V641.12Z" transform="translate(-112.831 -465.384)" fill="#6c63ff" opacity="0.1"/>
    <path id="Path_31" data-name="Path 31" d="M379.95,287.966Zm-18.585,89.045ZM341.975,331.7c.057.193.106.386.16.576h0C342.086,332.091,342.035,331.9,341.975,331.7Zm37.976-43.747ZM197.72,242.78v1.288H211.2V242.78ZM361.365,377.012ZM341.975,331.7c.057.193.106.386.16.576h0C342.086,332.091,342.035,331.9,341.975,331.7Zm37.976-43.747ZM361.365,377Zm-19.391-45.3c.057.193.106.386.16.576h0C342.086,332.091,342.035,331.9,341.975,331.7Z" transform="translate(-151.984 -187.225)" fill="#6c63ff" opacity="0.1"/>
    <path id="Path_32" data-name="Path 32" d="M359.95,284.577s-1.189-.166-1.189-1.9a27.131,27.131,0,0,0-.851-4.966h0c0-.015-.736-5.633-1.753-6.526s-2.323-6.137-2.323-6.137-.223-2.845-.679-3.458a29.379,29.379,0,0,1-1.979-4.251c-.908-2.139-4.695-3.62-4.695-3.62s-6.846-3.97-8.786-5.265h0a2.976,2.976,0,0,1-.492-.371c-.338-.444-1.81-.453-1.81-.453a29.658,29.658,0,0,1-.35-3.1,2.358,2.358,0,0,0-.015-.326,10.439,10.439,0,0,0,4.589-5.678c.036-.115.066-.235.1-.35a.981.981,0,0,0,.588-.531,11.06,11.06,0,0,1,.4-1.207,4.544,4.544,0,0,1,1.116-.981,4.224,4.224,0,0,0,1.162-3.436c-.03-1.011-.193-2.03-.13-3.035l.018-.253c.018-.151.039-.3.066-.447.148-.748.471-1.454.652-2.2a2.826,2.826,0,0,0-.223-2.218c-.619-.938-1.907-1.125-3.038-1.222-1.282-.109-2.429.033-3.249-1.032a11.585,11.585,0,0,0-1.291-1.56c-.169-.157-1.81-1.159-1.81-1.225a7.334,7.334,0,0,0-5.114-.392c-.851.247-1.653.652-2.516.854-1.862.44-4-.036-5.585,1.029a6.564,6.564,0,0,0-1.9,2.5q-.6,1.156-1.225,2.308A14.95,14.95,0,0,0,316,229.084a6.262,6.262,0,0,0-.109.923h0v.492a1.626,1.626,0,0,0,.018.3c.018.094.015.124.024.187s.024.205.042.3.054.266.09.4c.015.057.036.112.054.166.03.1.066.2.106.3.021.051.042.106.066.157a2.82,2.82,0,0,0,.154.3c.024.042.042.081.066.121a4.01,4.01,0,0,0,.278.4c.646.806,1.6,1.318,2.3,2.073v.338a10.327,10.327,0,0,0,4.7,8.433c0,.115.015.232.021.347a17.257,17.257,0,0,1-.033,2.688,1.267,1.267,0,0,0-1-.447,1.446,1.446,0,0,0-.386.033l-.027-.021h0v.027c-.664.163-1.481.854-2.263,2.818,0,0-2.377,2.679-4.188,2.568s-6.393,2.788-6.393,2.788-4.471,2.9-5.431,5.859a41.291,41.291,0,0,1-1.925,4.912l-5.527,11.389h0l-1.02,9.036a41.929,41.929,0,0,1,.453,4.631c-.112.612,2.32,6.137,2.32,6.137s8.034,14.117,11.317,14.841l.235-.166a1.925,1.925,0,0,0,.444.166l.676-.477a7.364,7.364,0,0,1-.051,1.593c-.453,1.394.169,10.49.959,12.273s.51,25.162.51,25.162l-.112,2.064a.875.875,0,0,0,.027.181l-.027.489.081.042a5.811,5.811,0,0,1-.081,1.964,21.834,21.834,0,0,0-.4,3.464s-2.26,14.446-1.189,17.348,1.982,6.082,1.982,6.082,1.131,3.62.054,4.239-4.139,1.656-3.509,3.165c.573,1.394,2.749,5.129,3.071,5.675l-.027.287-.444,4.806a6.035,6.035,0,0,0,.51,1.834,3.161,3.161,0,0,0,3.225,2.015c.3-.021.652-.057.99-.1a42.764,42.764,0,0,0,7.331-1.907,2.99,2.99,0,0,1-.573-.474h0a1.656,1.656,0,0,1-.5-1.207c.048-.875-1.59-5.045-2-6.07-.063-.148-.1-.232-.1-.232s3.735-3.9,3.114-7.365c0,0-4.133-2.414-2.773-3.738a42.144,42.144,0,0,0,3.792-5.129s.112-14.225,0-16.349a17.59,17.59,0,0,1,.208-4.414c.045-.22.1-.435.157-.646a39.381,39.381,0,0,0,5.684.431c.694,0,1.4,0,2.112-.042q0,.3.027.652c.157,3.524.45,9.7.688,12,.338,3.292,2.205,12.162,2.205,12.162s-3.563,2.287.622,7.923a7.638,7.638,0,0,1-.278,2.338h0a25.577,25.577,0,0,0-.715,2.945,5.192,5.192,0,0,0,.036,2.694c.679,1.334,4.752,1.225,4.752,1.225h0l.1-.018a5.838,5.838,0,0,1,4.311,1.3c1.548,1.243,7.422.7,10.6.3,1.246-.157,2.079-.3,2.079-.3a1.206,1.206,0,0,0,.042-.434h0c-.033-.781-.646-2.5-4.8-4.025,0,0-3.9-2.625-3.85-4.912h-.534a4.257,4.257,0,0,1,.54,0s-1.53-5.582-.905-6.034-1.246-6.638-1.246-6.638-1.071-10.379-1.128-11.106a6.336,6.336,0,0,1,.281-1.84l-.281-5.69s-.054-1.892,0-2.507a12.523,12.523,0,0,0-.13-1.6c-.027-.211-.054-.431-.084-.649,1.463-.371,2.414-.715,2.414-.715l-.169-19.807c1.243-2.414,1.472-7.709,1.466-11.465,0-2.414-.109-4.2-.109-4.2l1.7-2.773s.392-3.319-.229-4.046a.7.7,0,0,1,.075-.95,3.159,3.159,0,0,1,.371-.253s-.018-.027-.039-.066a3,3,0,0,1,.377-.269s-.6-.935-.063-1.331c.507.344.959.6,1.3.815-.024.22-.048.347-.048.347l.145-.3.534.3s2.661-5.3,2.6-6.082,1.81-4.073,1.81-4.073a4.075,4.075,0,0,1,1.246-2.453c1.02-.724.79-5.971.79-5.971a12.863,12.863,0,0,1,.962-3.85C361.247,286.082,359.95,284.577,359.95,284.577Zm-50.916-2.326.051,1.264-.519-.836Z" transform="translate(-220.347 -170.033)" fill="url(#linear-gradient)"/>
    <path id="Path_33" data-name="Path 33" d="M470.545,495.354l-.652,2.776s-5.219-2.664-6.161-6.049,1.575-4.67,1.575-4.67l4.864,2.061Z" transform="translate(-337.592 -358.049)" fill="#fff"/>
    <path id="Path_34" data-name="Path 34" d="M470.545,495.354l-.652,2.776s-5.219-2.664-6.161-6.049,1.575-4.67,1.575-4.67l4.864,2.061Z" transform="translate(-337.592 -358.049)" opacity="0.1"/>
    <path id="Path_35" data-name="Path 35" d="M362.379,801.411a37.508,37.508,0,0,1-8.146,2,3.1,3.1,0,0,1-3.165-2,6.066,6.066,0,0,1-.5-1.825L351,794.8l.229-2.546,7.051-1.831,1,3.053.094.232c.4,1.02,2.009,5.168,1.961,6.034a1.647,1.647,0,0,0,.495,1.192A2.867,2.867,0,0,0,362.379,801.411Z" transform="translate(-258.718 -569.639)" fill="#fff"/>
    <path id="Path_36" data-name="Path 36" d="M448.845,798.246a1.207,1.207,0,0,1-.042.431s-10.324,1.723-12.436,0a5.594,5.594,0,0,0-4.345-1.273s-3.995.109-4.661-1.207a5.238,5.238,0,0,1-.033-2.679,25.523,25.523,0,0,1,.7-2.929l.16-.127.95-.763,11.127-.329h.084c-.054,2.275,3.777,4.885,3.777,4.885C448.2,795.763,448.8,797.468,448.845,798.246Z" transform="translate(-312.211 -568.906)" fill="#fff"/>
    <path id="Path_37" data-name="Path 37" d="M448.849,807.848a1.231,1.231,0,0,1-.045.431s-10.321,1.723-12.433,0a5.593,5.593,0,0,0-4.342-1.273s-4,.109-4.661-1.207a5.233,5.233,0,0,1-.036-2.679c1.539.154,3.967.537,4.921,1.451,1.442,1.391,3.886,2.779,5.385,2.887C438.811,807.534,445.832,807.757,448.849,807.848Z" transform="translate(-312.215 -578.508)" opacity="0.1"/>
    <path id="Path_38" data-name="Path 38" d="M363.538,825.775a37.5,37.5,0,0,1-8.146,2,3.091,3.091,0,0,1-3.162-2.006c1.228.413,2.933.848,3.829.45,1.062-.471,4.827-.775,6.939-.905A2.967,2.967,0,0,0,363.538,825.775Z" transform="translate(-259.878 -594.003)" opacity="0.1"/>
    <path id="Path_39" data-name="Path 39" d="M394.873,311.1c-3.983-1.548-9.105-6.662-7.826-9.051a5.347,5.347,0,0,0,.5-1.919,17.52,17.52,0,0,0,.036-2.715,37.176,37.176,0,0,0-.534-4.417s12.433.281,11.709,2.112a6.848,6.848,0,0,0-.187,2.513c.057,1.044.208,2.224.365,3.222.217,1.37.434,2.414.434,2.414s-.76,1.065-1.207,1.122S400.588,313.308,394.873,311.1Z" transform="translate(-284.051 -222.294)" fill="#cf6f80"/>
    <path id="Path_40" data-name="Path 40" d="M360.342,793.706l-.093.1c-3.717-4.5-8.212,1.107-8.212,1.107l-.066-.118.229-2.546,7.051-1.831,1,3.053Z" transform="translate(-259.696 -569.639)" opacity="0.1"/>
    <path id="Path_41" data-name="Path 41" d="M442.338,789.659s-2.715-.057-4.164,1.222-8.448.278-8.146,0a.992.992,0,0,0,.157-.459l.95-.763,11.127-.329C442.3,789.532,442.338,789.659,442.338,789.659Z" transform="translate(-314.197 -568.878)" opacity="0.1"/>
    <path id="Path_42" data-name="Path 42" d="M357.86,659.619a8.393,8.393,0,0,0-.459,1.548,17.713,17.713,0,0,0-.208,4.393c.112,2.112,0,16.265,0,16.265a43.3,43.3,0,0,1-3.717,5.1c-1.331,1.331,2.715,3.72,2.715,3.72.6,3.44-3.053,7.325-3.053,7.325-3.717-4.5-8.212,1.11-8.212,1.11s-2.444-4.224-3.053-5.732,2.387-2.552,3.439-3.165-.051-4.224-.051-4.224-.89-3.165-1.946-6.052,1.165-17.261,1.165-17.261a22.271,22.271,0,0,1,.389-3.442,5.757,5.757,0,0,0,.081-1.955c-.018-.22-.039-.4-.054-.528s-.027-.181-.027-.181l.042-.072,1.509-2.812S358.584,657.848,357.86,659.619Z" transform="translate(-252.588 -474.141)" fill="#2b87e0"/>
    <path id="Path_43" data-name="Path 43" d="M434.79,701.419s-2.715-.057-4.164,1.207-8.448.278-8.146,0,.278-2.332.278-2.332c-4.106-5.606-.6-7.881-.6-7.881s-1.834-8.825-2.166-12.1c-.232-2.287-.519-8.433-.673-11.942-.066-1.509-.106-2.546-.106-2.546l3.355-.676.431-.087,8.092-1.623s.223,1.509.374,2.743a12.825,12.825,0,0,1,.127,1.59c-.054.6,0,2.492,0,2.492l.275,5.663a6.433,6.433,0,0,0-.275,1.831c.054.721,1.107,11.045,1.107,11.045s1.831,6.161,1.207,6.6S434.79,701.419,434.79,701.419Z" transform="translate(-306.649 -480.97)" fill="#2b87e0"/>
    <path id="Path_44" data-name="Path 44" d="M399.219,295.112a6.846,6.846,0,0,0-.187,2.513,10.334,10.334,0,0,1-10.988-.205,37.181,37.181,0,0,0-.534-4.42S399.943,293.275,399.219,295.112Z" transform="translate(-284.513 -222.294)" opacity="0.1"/>
    <path id="Path_45" data-name="Path 45" d="M394.473,254a10.219,10.219,0,0,1-.507,3.2,10.324,10.324,0,0,1-20.136-2.954V254a10.324,10.324,0,1,1,20.647,0Z" transform="translate(-274.961 -187.854)" fill="#cf6f80"/>
    <path id="Path_46" data-name="Path 46" d="M394.873,327.61c-3.983-1.548-9.105-6.662-7.826-9.051a5.347,5.347,0,0,0,.5-1.919L393,321.12l3.373,2.767,2.564-6.529c.217,1.37.434,2.414.434,2.414s-.76,1.065-1.207,1.122S400.588,329.815,394.873,327.61Z" transform="translate(-284.051 -238.801)" opacity="0.1"/>
    <path id="Path_47" data-name="Path 47" d="M353.075,287.671l-4.553,76.482-5.938.389L327.21,320.195l2.522-52.651.531-11.124,6.837,5.615,3.376,2.767,2.64-6.719,4.909,4.278Z" transform="translate(-228.154 -179.061)" fill="#2b87e0"/>
    <path id="Path_48" data-name="Path 48" d="M364.988,659.674a8.394,8.394,0,0,0-.459,1.548,43.747,43.747,0,0,1-12.448-3.889l-.081-.042.027-.486.015-.253,1.509-2.812S365.713,657.9,364.988,659.674Z" transform="translate(-259.717 -474.196)" opacity="0.1"/>
    <path id="Path_49" data-name="Path 49" d="M422.592,672a30.547,30.547,0,0,1-3.337.38c-.066-1.508-.106-2.546-.106-2.546l3.355-.676Z" transform="translate(-306.607 -484.964)" opacity="0.1"/>
    <path id="Path_50" data-name="Path 50" d="M440.166,666.232a23.418,23.418,0,0,1-8.424.794l-.042-1.913,8.092-1.623S440.015,664.983,440.166,666.232Z" transform="translate(-315.371 -481.005)" opacity="0.1"/>
    <path id="Path_51" data-name="Path 51" d="M341.119,424.03c-12.37,2.112-23.7-3.943-23.7-3.943l.109-2.052s.281-23.258-.5-25.042-1.385-10.825-.944-12.213-1.608-22.2-1.608-22.2l-.332-8.448L302,345.212l5.431-11.32A40.855,40.855,0,0,0,309.319,329c.944-2.939,5.328-5.826,5.328-5.826s4.5-2.884,6.273-2.776,4.106-2.552,4.106-2.552c1.72-4.384,3.276-2.4,3.276-2.4a3.916,3.916,0,0,1-.084.649c-.6,4.812,9.757,20.018,9.905,20.287h0l.987,24.034,1,30.415Z" transform="translate(-224.802 -237.659)" opacity="0.1"/>
    <path id="Path_52" data-name="Path 52" d="M340,423.988c-12.37,2.112-23.7-3.943-23.7-3.943l.112-2.052s.281-23.258-.5-25.042-1.385-10.825-.941-12.213-1.608-22.2-1.608-22.2l-.335-8.448-12.153-4.939,5.431-11.32a41.489,41.489,0,0,0,1.889-4.888c.941-2.939,5.328-5.826,5.328-5.826s4.5-2.884,6.269-2.776,4.106-2.552,4.106-2.552c1.723-4.384,3.62-2.4,3.62-2.4,0,.208-.181.3-.084.649,1.327,4.667,9.425,20.018,9.573,20.287h0l1,24.034,1,30.415Z" transform="translate(-224.013 -237.617)" fill="#fff"/>
    <path id="Path_53" data-name="Path 53" d="M393.135,338.63c-1.331-.555-8.378-8.6-8.378-8.6V328.2c-.256-.6-1.78-.235-3.017.187l.531-11.124.6.5C384.2,322.425,392.982,338.361,393.135,338.63Z" transform="translate(-280.484 -239.234)" opacity="0.1"/>
    <path id="Path_54" data-name="Path 54" d="M394.238,336.42c-1.334-.555-8.381-8.6-8.381-8.6v-1.831c-.256-.6-1.78-.235-3.017.187l.534-11.124.6.5C385.3,320.215,394.091,336.154,394.238,336.42Z" transform="translate(-281.252 -237.691)" fill="#fff"/>
    <path id="Path_55" data-name="Path 55" d="M351.539,516.837c.166,0,8.6-.887,8.6-.887s5.108,10.044,4.773,12.488-.941,4.607-3,4.224-11.057.3-11.057.3Z" transform="translate(-258.921 -377.978)" opacity="0.1"/>
    <path id="Path_56" data-name="Path 56" d="M350.429,514.627c.166,0,8.6-.887,8.6-.887s5.1,10.047,4.773,12.488-.944,4.607-3,4.224-11.058.3-11.058.3Z" transform="translate(-258.146 -376.435)" fill="#fff"/>
    <path id="Path_57" data-name="Path 57" d="M362.393,501.05s7.742,4.16,7.908,5.431-3.94-.555-4.827-.775a11.052,11.052,0,0,0-1.777-.278l-5.916.16Z" transform="translate(-263.753 -367.574)" fill="#cf6f80"/>
    <circle id="Ellipse_4" data-name="Ellipse 4" cx="0.815" cy="0.815" r="0.815" transform="translate(109.676 98.285)" opacity="0.1"/>
    <circle id="Ellipse_5" data-name="Ellipse 5" cx="0.815" cy="0.815" r="0.815" transform="translate(109.676 97.953)" fill="#3f3d56"/>
    <circle id="Ellipse_6" data-name="Ellipse 6" cx="0.815" cy="0.815" r="0.815" transform="translate(111.176 133.549)" opacity="0.1"/>
    <circle id="Ellipse_7" data-name="Ellipse 7" cx="0.815" cy="0.815" r="0.815" transform="translate(111.176 133.214)" fill="#3f3d56"/>
    <circle id="Ellipse_8" data-name="Ellipse 8" cx="0.815" cy="0.815" r="0.815" transform="translate(110.488 115.917)" opacity="0.1"/>
    <circle id="Ellipse_9" data-name="Ellipse 9" cx="0.815" cy="0.815" r="0.815" transform="translate(110.488 115.585)" fill="#3f3d56"/>
    <path id="Path_58" data-name="Path 58" d="M442.1,378.035s.555.833,0,1.222.054,1.331.054,1.331-1.385.812-.775,1.542.223,4.028.223,4.028l-1.665,2.758s.1,1.777.106,4.179c0,3.747-.22,9.015-1.439,11.417l.169,19.7s-5.832,2.13-10.714,1.481l-.724-31.619s1.056-17.93,1.445-21.37a35.8,35.8,0,0,0,.278-5.385,60.166,60.166,0,0,0-.724-7.881s-.6-10.822-.664-13.818c-.027-1.433.048-5.615.133-9.591.094-4.348.2-8.448.2-8.448l-1.1-8.713s1.1-.112,1.433.332a3.179,3.179,0,0,0,.483.371h0c1.9,1.285,8.617,5.238,8.617,5.238s3.717,1.478,4.607,3.6a31.336,31.336,0,0,0,1.94,4.224,13.036,13.036,0,0,1,.667,3.439s1.279,5.22,2.278,6.1,1.729,6.508,1.729,6.508l-8.825,6.939s-.775,11.543-.941,11.99S442.1,378.035,442.1,378.035Z" transform="translate(-312.019 -240.35)" fill="#fff"/>
    <path id="Path_59" data-name="Path 59" d="M442.386,377.813s.552.833,0,1.222.051,1.331.051,1.331-1.376.821-.772,1.551.223,4.028.223,4.028l-1.665,2.758s.1,1.777.109,4.179c0,3.747-.22,9.015-1.439,11.417l.166,19.7s-5.841,2.13-10.717,1.481l-.721-31.619s1.056-17.93,1.445-21.37a35.477,35.477,0,0,0,.275-5.385,60.546,60.546,0,0,0-.721-7.881s-.6-10.822-.667-13.818c-.027-1.433.051-5.615.133-9.591.094-4.348.2-8.448.2-8.448l-1.454-8.831s1.454,0,1.789.45a2.864,2.864,0,0,0,.483.371h0c1.9,1.285,8.62,5.238,8.62,5.238s3.714,1.478,4.6,3.6a30.844,30.844,0,0,0,1.943,4.224,12.887,12.887,0,0,1,.664,3.439s1.279,5.22,2.278,6.1,1.72,6.5,1.72,6.5l-8.825,6.939s-.775,11.543-.944,11.99S442.386,377.813,442.386,377.813Z" transform="translate(-311.97 -240.128)" fill="#fff"/>
    <path id="Path_60" data-name="Path 60" d="M432.592,331.462l.8,2.323-4.194,4.224c.094-4.345.2-8.448.2-8.448l-1.454-8.831s1.454,0,1.789.45a2.756,2.756,0,0,0,.483.368h0l3.566,10.288Z" transform="translate(-312.745 -241.657)" opacity="0.1"/>
    <path id="Path_61" data-name="Path 61" d="M431.482,329.252l.8,2.323-4.194,4.224c.094-4.348.2-8.448.2-8.448l-1.457-8.831s1.457,0,1.789.45a3.015,3.015,0,0,0,.483.371h0l3.569,10.285Z" transform="translate(-311.97 -240.114)" fill="#fff"/>
    <path id="Path_62" data-name="Path 62" d="M394.473,254a10.219,10.219,0,0,1-.507,3.2.432.432,0,0,1-.326-.081,13.319,13.319,0,0,0-3.059-7.434,7.812,7.812,0,0,0-1.659-1.72,3.247,3.247,0,0,0-2.251-.637c-.905.124-1.7.739-2.619.818-1.207.1-2.287-.736-3.485-.778a3.424,3.424,0,0,0-2.561,1.189,7.026,7.026,0,0,0-1.373,2.546,14.9,14.9,0,0,0-.766,4.393c-.015.845-.1,1.9-.881,2.212a4.507,4.507,0,0,0-1.137-3.442l-.018-.018V254a10.324,10.324,0,1,1,20.647,0Z" transform="translate(-274.961 -187.854)" opacity="0.1"/>
    <path id="Path_63" data-name="Path 63" d="M381.128,222.005a7.108,7.108,0,0,0-5.014-.392c-.836.247-1.623.649-2.471.851-1.81.437-3.922-.036-5.476,1.023a6.55,6.55,0,0,0-1.865,2.483l-1.207,2.3a14.918,14.918,0,0,0-1.6,3.922,5.008,5.008,0,0,0,.769,4.049c.64.812,1.584,1.321,2.278,2.085a4.526,4.526,0,0,1,1.134,3.439c.787-.3.863-1.364.881-2.208a14.9,14.9,0,0,1,.766-4.393,7,7,0,0,1,1.373-2.546,3.431,3.431,0,0,1,2.562-1.189c1.207.042,2.29.875,3.485.775.905-.075,1.708-.694,2.619-.815a3.234,3.234,0,0,1,2.251.637,7.728,7.728,0,0,1,1.656,1.72,13.284,13.284,0,0,1,3.062,7.434c.341.25.833-.075,1-.462a11.024,11.024,0,0,1,.389-1.207,4.449,4.449,0,0,1,1.092-.971,4.27,4.27,0,0,0,1.14-3.418,17.029,17.029,0,0,1-.042-3.717c.142-.748.462-1.448.637-2.187a2.86,2.86,0,0,0-.217-2.206c-.6-.935-1.874-1.119-2.981-1.207-1.258-.109-2.383.03-3.186-1.029a11.552,11.552,0,0,0-1.267-1.551C382.742,223.067,381.128,222.072,381.128,222.005Z" transform="translate(-267.663 -172.246)" fill="#512e4e"/>
    <path id="Path_64" data-name="Path 64" d="M303.911,420.959l-3.153-5.829-1,8.994a41.688,41.688,0,0,1,.443,4.607c-.112.612,2.275,6.1,2.275,6.1s7.884,14.041,11.1,14.765l10.876-7.772-2.884-3.663s-1-.389-1.249,0c0,0-5.355-9.214-5.91-9.881a3.328,3.328,0,0,1-.447-2s-.833-.887-.555-1.72-1.608-3.72-1.608-3.72l1.72-1.608Z" transform="translate(-223.238 -307.576)" opacity="0.1"/>
    <path id="Path_65" data-name="Path 65" d="M299.381,412.93l-.833.664-1,8.994a41.681,41.681,0,0,1,.443,4.607c-.112.612,2.278,6.1,2.278,6.1s7.881,14.041,11.1,14.765l10.88-7.772-2.887-3.663s-1-.389-1.249,0c0,0-5.355-9.214-5.91-9.881a3.318,3.318,0,0,1-.443-2s-.833-.887-.555-1.72-1.611-3.72-1.611-3.72l1.72-1.608Z" transform="translate(-221.695 -306.04)" fill="#fff"/>
    <path id="Path_66" data-name="Path 66" d="M460.322,517.273c.6.733.223,4.025.223,4.025l-1.665,2.758s.1,1.78.106,4.179l-2.8.875a1.662,1.662,0,0,1-2.157-1.638l.483-15.571,6.532,2.5c-.555.386.054,1.334.054,1.334S459.712,516.54,460.322,517.273Z" transform="translate(-330.962 -375.15)" opacity="0.1"/>
    <path id="Path_67" data-name="Path 67" d="M461.425,516.17c.6.733.223,4.028.223,4.028l-1.665,2.758s.1,1.777.109,4.179l-2.851.89a1.629,1.629,0,0,1-2.112-1.605l.486-15.619,6.535,2.5c-.558.386.051,1.331.051,1.331S460.821,515.44,461.425,516.17Z" transform="translate(-331.73 -374.382)" fill="#fff"/>
    <path id="Path_68" data-name="Path 68" d="M471.076,498.377s-.444,2.833-1.554,3-1.608,4.583-2.715,4.426-.374-4.106-.335-4.873-1.207-3.94-.275-4.661,3.883,0,3.883,0Z" transform="translate(-339.218 -364.011)" fill="#cf6f80"/>
    <path id="Path_69" data-name="Path 69" d="M470.8,421.914l2.094-4.224a27.422,27.422,0,0,1,.833,4.939c0,1.72,1.165,1.889,1.165,1.889s1.276,1.509.6,2.607a12.653,12.653,0,0,0-.944,3.832s.22,5.216-.778,5.938a4.041,4.041,0,0,0-1.207,2.444s-1.834,3.274-1.777,4.052-2.552,6.049-2.552,6.049,1.276-6.55-6.161-9.38c0,0-.057-2.224.5-2.833s1.421-.887.878-3.967a35.979,35.979,0,0,1-.157-7.5,47.232,47.232,0,0,1,1.665-5.349Z" transform="translate(-336.581 -309.364)" opacity="0.1"/>
    <path id="Path_70" data-name="Path 70" d="M473.167,415.69l1.828.6a27.333,27.333,0,0,1,.836,4.939c0,1.72,1.165,1.889,1.165,1.889s1.276,1.509.6,2.607a12.62,12.62,0,0,0-.941,3.832s.22,5.216-.778,5.938a4.1,4.1,0,0,0-1.222,2.444s-1.831,3.273-1.774,4.052-2.555,6.049-2.555,6.049,1.279-6.55-6.161-9.38c0,0-.054-2.224.5-2.833s1.421-.887.878-3.967a35.983,35.983,0,0,1-.157-7.5,47.235,47.235,0,0,1,1.665-5.349Z" transform="translate(-338.041 -307.967)" fill="#fff"/>
    <path id="Path_71" data-name="Path 71" d="M360.15,776.279s2.914-1.831,4.827-.5S360.15,776.279,360.15,776.279Z" transform="translate(-265.408 -559.077)" opacity="0.1"/>
    <path id="Path_72" data-name="Path 72" d="M435.21,759.752a5.9,5.9,0,0,1,4.746,2C442.122,764.085,435.21,759.752,435.21,759.752Z" transform="translate(-317.822 -548.213)" opacity="0.1"/>
    <g id="Group_1" data-name="Group 1" transform="translate(95.718 55.712)" opacity="0.1">
      <path id="Path_73" data-name="Path 73" d="M398.811,259.6a4.475,4.475,0,0,0-1.1.975,11.042,11.042,0,0,0-.386,1.207c-.169.392-.661.712-1,.465a13.341,13.341,0,0,0-3.062-7.437,7.731,7.731,0,0,0-1.656-1.72,3.243,3.243,0,0,0-2.254-.637c-.905.124-1.7.739-2.616.815-1.207.1-2.29-.733-3.488-.775a3.415,3.415,0,0,0-2.558,1.192,6.987,6.987,0,0,0-1.373,2.543,14.917,14.917,0,0,0-.766,4.393c-.018.842-.1,1.892-.875,2.205a4.132,4.132,0,0,1,0,.67c.784-.3.863-1.364.881-2.208a14.9,14.9,0,0,1,.766-4.393,7,7,0,0,1,1.373-2.546,3.424,3.424,0,0,1,2.558-1.189c1.207.042,2.293.875,3.488.775.905-.075,1.708-.694,2.616-.815a3.243,3.243,0,0,1,2.254.637,7.73,7.73,0,0,1,1.656,1.72,13.3,13.3,0,0,1,3.062,7.434c.341.25.833-.075,1-.462a11.7,11.7,0,0,1,.386-1.207,4.466,4.466,0,0,1,1.1-.972,4.27,4.27,0,0,0,1.14-3.418v-.115A3.961,3.961,0,0,1,398.811,259.6Z" transform="translate(-373.367 -249.684)"/>
      <path id="Path_74" data-name="Path 74" d="M366.557,264.933c-.694-.763-1.641-1.273-2.278-2.082a4.418,4.418,0,0,1-.878-2.471,4.646,4.646,0,0,0,.878,3.135c.637.812,1.584,1.321,2.278,2.085a4.525,4.525,0,0,1,1.137,2.691,4.525,4.525,0,0,0-1.137-3.358Z" transform="translate(-363.385 -255.227)"/>
      <path id="Path_75" data-name="Path 75" d="M451.756,243.9c-.178.739-.495,1.442-.64,2.187a6.969,6.969,0,0,0-.094,1.509,5.853,5.853,0,0,1,.094-.857c.145-.748.462-1.448.64-2.187a3.712,3.712,0,0,0,.1-1.249,4.2,4.2,0,0,1-.1.6Z" transform="translate(-424.576 -243.3)"/>
    </g>
    <ellipse id="Ellipse_10" data-name="Ellipse 10" cx="29.398" cy="4.722" rx="29.398" ry="4.722" transform="translate(10.982 220.027)" fill="#fff" opacity="0.996"/>
    <rect id="Rectangle_27" data-name="Rectangle 27" width="1.892" height="42.592" transform="translate(39.436 134.297)" fill="#535461"/>
    <path id="Path_76" data-name="Path 76" d="M163.11,637.82l-.118,1.919-.169,2.715-.069,1.128-.166,2.715-.072,1.128-.169,2.715-1.907,30.8a5.22,5.22,0,0,1-5.207,4.894h-9.914a5.217,5.217,0,0,1-5.2-4.894l-1.9-30.816-.169-2.715-.069-1.128-.169-2.715-.069-1.128-.169-2.715-.121-1.919a2.715,2.715,0,0,1,2.715-2.869h20.278a2.7,2.7,0,0,1,2.667,2.89Z" transform="translate(-109.895 -461.061)" fill="#3f3d56"/>
    <path id="Path_77" data-name="Path 77" d="M116.014,592.24l-.169,2.706h-25.1l-.169-2.706Z" transform="translate(-62.916 -413.562)" fill="#9d9cb5"/>
    <path id="Path_78" data-name="Path 78" d="M116.327,604.95l-.166,2.709H91.539l-.169-2.709Z" transform="translate(-63.468 -422.438)" fill="#9d9cb5"/>
    <path id="Path_79" data-name="Path 79" d="M116.64,617.68l-.166,2.706H92.329l-.169-2.706Z" transform="translate(-64.02 -431.327)" fill="#9d9cb5"/>
    <path id="Path_80" data-name="Path 80" d="M72.037,537.184c11.015,7.971,15.613,20.438,15.613,20.438s-13.275-.456-24.293-8.427S47.75,528.76,47.75,528.76,61.019,529.213,72.037,537.184Z" transform="translate(-47.261 -386.924)" fill="#2adc93"/>
    <path id="Path_81" data-name="Path 81" d="M47.72,528.76s13.782,7.648,18.2,13.981,21.708,14.88,21.708,14.88" transform="translate(-47.24 -386.924)" fill="none" stroke="#535461" stroke-miterlimit="10" stroke-width="2"/>
    <path id="Path_82" data-name="Path 82" d="M121.221,492.846a26.787,26.787,0,0,1,8.5,11.121A24.281,24.281,0,0,1,108,488.26,26.713,26.713,0,0,1,121.221,492.846Z" transform="translate(-89.333 -358.643)" fill="#2adc93"/>
    <path id="Path_83" data-name="Path 83" d="M108,488.26s7.5,4.164,9.905,7.609,11.818,8.1,11.818,8.1" transform="translate(-89.333 -358.643)" fill="none" stroke="#535461" stroke-miterlimit="10" stroke-width="2"/>
    <path id="Path_84" data-name="Path 84" d="M189.535,516.136A36.949,36.949,0,0,0,181.19,533.6a33.582,33.582,0,0,0,24.939-27.419A36.978,36.978,0,0,0,189.535,516.136Z" transform="translate(-140.441 -371.156)" fill="#2adc93"/>
    <path id="Path_85" data-name="Path 85" d="M206.135,506.19s-8.973,7.76-11.254,13.106-13.691,14.31-13.691,14.31" transform="translate(-140.441 -371.163)" fill="none" stroke="#535461" stroke-miterlimit="10" stroke-width="2"/>
    <path id="Path_86" data-name="Path 86" d="M890.185,344.144s-4.981-24.782-3.074-27.866c0,0,.069-2.866-.045-6.52v-.419a9.27,9.27,0,0,0,1.047.6,8.471,8.471,0,0,0,5.7.736L892.306,309a2.785,2.785,0,0,1-.818-1.367,2.863,2.863,0,0,1,.326-1.478c1.433-3.62,1.508-8.173-1.252-10.937-2.332-2.323-2.9-5.322-5.431-7.443-1.849-1.554-2.866-3.832-3.826-6.034a33.931,33.931,0,0,1-2.094-5.711c-.362-1.542-.507-3.138-1-4.643a5.91,5.91,0,0,0-2.887-3.642,10.9,10.9,0,0,1-1.569-.691,6.776,6.776,0,0,1-1.445-1.7c-2.284-3.017-9.932-1.24-13.553-.015a7.624,7.624,0,0,0-2.679,1.484l.033-.054c.027-.045.06-.091.09-.136a4.763,4.763,0,0,0-1.014,1.131A27.146,27.146,0,0,0,854,270.48c-.531,1.071-3.485,4.061-2.214,5.265a1.073,1.073,0,0,0,.3.193,2.611,2.611,0,0,0,1.509.151l-.054.13a8.818,8.818,0,0,0-.655,3.346,9.055,9.055,0,0,0,9.136,8.976,9.223,9.223,0,0,0,2.8-.431c.021.115.039.229.06.344a1.067,1.067,0,0,0,.021.136h0l-.16.223a.3.3,0,0,0-.027-.039l-4.737,6.619c-.724.51-4.894,3.527-5.129,5.79-.247,2.477-.495,5.376-.495,5.376l-.033.622a1.865,1.865,0,0,1-1.508.407c-1.478-.241-1.478,5.431-1.478,5.431s-.984.905-1.659.121-2.462,1.874-2.462,1.874l-11.193.483h0l-.256.015-.6-1.868a.787.787,0,0,0-.987-.5.908.908,0,0,0-.136.057l-.042.024-.078.054-.039.036a.6.6,0,0,0-.06.063l-.036.042-.018.018h0a.76.76,0,0,0-.109.676l.519,1.6c-2.16.434-4.369,1.659-2.568,5.032l-9.13-1.687,2.954,2.48,15.248,3.147c-.2.362-.069.887.561,1.626,2.715,3.189,7.663,4.055,9.655,4.278a17.139,17.139,0,0,0,1.958,3.319l-.172,3.177s-5.042,24.215-5.965,25.443a14.354,14.354,0,0,0,1.276-1.68c-1.463,4.975-3.509,11.785-4.046,12.8-.863,1.629-1.662,8.221-.679,8.644a8.277,8.277,0,0,0,2.4-.027v.546l-.054,20.694s.247,12.693-.432,13.9a11.835,11.835,0,0,0-.86,3.747s-2.715,5.005-4.866,7.018a.329.329,0,0,1-.048.042l-.066-.471s-2.586,3.264-8.306,3.08c0,0-3.442,2.239,1.662,2.359s11.625-.181,11.625-.181,4.553-6.939,8.366-6.034v5.259h1.168v-5.343a4.788,4.788,0,0,0,2.079-3.147,3.826,3.826,0,0,0-1.364-3.539,2.263,2.263,0,0,1-.745-1.653l-.042.036a3.187,3.187,0,0,0-.039-.326c-.335-2.715-.754-8.318.727-12.463,2.03-5.684,2.646-13.6,1.168-18.314a42.129,42.129,0,0,1-1.174-4.589c-.036-.2-.069-.383-.1-.558a23.776,23.776,0,0,1,3,.6c3.424.944,10.916,1.119,17.312,1.068.015.175.033.359.054.543a19.763,19.763,0,0,0,.712,3.777c.8,2.414,1.171,13.055,1.171,13.055s1.035,8.75.471,12.31c-.3,1.979-.6,3.967-.775,5.965v.039s-1.7,4.827-2.936,7.449c-.03.066-.063.133-.094.2a3.92,3.92,0,0,0-.969.214s-1.662,3.319-3.319,3.868-1.107,2.356,2.643,1.693,9.413-1.207,9.413-1.207l.244-3.385,1.152-1.442-.3,3.376,1.228-.241-.163-4.106,1.886-2.359s2.278-2.027-1.107-6.016v.087c-.036-.057-.069-.118-.109-.175v-.018c-.561-.869-1.008-2.489-.19-5.364,1.478-5.2,2.338-9.911,2.338-9.911s3.3-12.632-.667-18.609h.175a10.057,10.057,0,0,1-.854-2.655q-.03-.163-.054-.335a21.77,21.77,0,0,0,8.167-1.846C892.77,378.895,891.355,348.917,890.185,344.144Zm-37.27-20.908v.06l-.6.03Zm-2.07.287a.667.667,0,0,0-.272.13,2.679,2.679,0,0,0-.474,1.24l-.941-.211s-.661-.142-1.611-.3l-.45-.453C848.335,323.824,849.62,323.673,850.845,323.522Z" transform="translate(-588.243 -201.828)" fill="url(#linear-gradient-2)"/>
    <path id="Path_87" data-name="Path 87" d="M971.679,742.133l-.359,4.275,1.2-.241-.181-4.637Z" transform="translate(-677.932 -517.811)" fill="#f3c623"/>
    <path id="Path_88" data-name="Path 88" d="M890.728,675.644c-1.451,4.133-1.041,9.712-.715,12.421.121,1,.232,1.611.232,1.611s-2.169,4.942-2.35,5.129-6.384,3.974-6.384,3.974l-4.336,2.531s-4.4-1.928-2.29-2.592a3.2,3.2,0,0,0,1.138-.775c2.112-2.006,4.764-6.994,4.764-6.994a12.028,12.028,0,0,1,.845-3.735c.664-1.2.422-13.854.422-13.854l.051-20.622V650.05l8.252.06a18.678,18.678,0,0,0,.356,2.715,41.51,41.51,0,0,0,1.149,4.574C893.317,662.1,892.713,669.981,890.728,675.644Z" transform="translate(-624.445 -471.62)" fill="#ffb0b1"/>
    <path id="Path_89" data-name="Path 89" d="M890.245,777.675s-2.169,4.942-2.35,5.129-6.384,3.974-6.384,3.974l-4.336,2.531s-4.4-1.928-2.29-2.592a3.2,3.2,0,0,0,1.138-.775l.187,1.318,1.445-.06,12.37-11.13C890.134,777.066,890.245,777.675,890.245,777.675Z" transform="translate(-624.445 -559.619)" opacity="0.1"/>
    <path id="Path_90" data-name="Path 90" d="M872.357,777l-12.439,11.205-1.445.06-.3-2.112s-2.528,3.252-8.146,3.071c0,0-3.373,2.23,1.626,2.35s11.383-.181,11.383-.181,4.459-6.939,8.191-6.034V790.6h1.146v-5.289a4.764,4.764,0,0,0,2.034-3.138,3.844,3.844,0,0,0-1.331-3.524,2.272,2.272,0,0,1-.718-1.65Z" transform="translate(-606.708 -560.268)" fill="#f3c623"/>
    <path id="Path_91" data-name="Path 91" d="M997.619,681.568c-.8,2.866-.365,4.48.184,5.346v.018a9.881,9.881,0,0,1,1.442,3.521l.048.272-5.66,8.252-3.071,1.207s-4.939-1.687-4.037-2.169a4.622,4.622,0,0,0,.984-1.611c1.207-2.61,2.872-7.425,2.872-7.425v-.039c.175-1.988.453-3.97.76-5.944.552-3.551-.462-12.267-.462-12.267s-.362-10.6-1.146-13.01a19.878,19.878,0,0,1-.7-3.753c-.163-1.508-.2-2.751-.2-2.751s3.252-4.526,9.214.362a6.563,6.563,0,0,1,1.246,1.352c4.118,5.859.8,18.766.8,18.766S999.064,676.388,997.619,681.568Z" transform="translate(-702.725 -471.099)" fill="#ffb0b1"/>
    <path id="Path_92" data-name="Path 92" d="M999.323,777.6l-5.66,8.252-3.071,1.207s-4.939-1.687-4.037-2.169a4.624,4.624,0,0,0,.984-1.611,3.9,3.9,0,0,1,3.174,1.973l2.649-.422s3.494-6.867,4.278-7.286.121-3.135.121-3.135v-.691c.021.024.039.051.063.076v.018a9.879,9.879,0,0,1,1.442,3.521Z" transform="translate(-702.746 -557.978)" opacity="0.1"/>
    <path id="Path_93" data-name="Path 93" d="M981.47,785.837a3.687,3.687,0,0,0-4.4-1.747s-1.626,3.319-3.252,3.856-1.083,2.347,2.592,1.686,9.214-1.207,9.214-1.207l.241-3.376,3.735-4.758s2.227-2.018-1.086-5.992v.691s.664,2.715-.121,3.135-4.266,7.289-4.266,7.289Z" transform="translate(-693.322 -558.383)" fill="#f3c623"/>
    <path id="Path_94" data-name="Path 94" d="M908.4,650.09a18.678,18.678,0,0,0,.356,2.715,37.853,37.853,0,0,0-8.617-.087V650.03Z" transform="translate(-642.48 -471.606)" opacity="0.1"/>
    <path id="Path_95" data-name="Path 95" d="M1004.583,653.671s-4.827.235-10.584.284c-.163-1.509-.2-2.752-.2-2.752s3.252-4.526,9.214.362a6.563,6.563,0,0,1,1.246,1.352A7.344,7.344,0,0,0,1004.583,653.671Z" transform="translate(-707.882 -471.093)" opacity="0.1"/>
    <path id="Path_96" data-name="Path 96" d="M932.735,530.811s-21.143,1.023-27.588-.784-12.832-.241-13.794-.661-.181-6.987.664-8.614S897.5,502.68,897.5,502.68l4.459-23.249,4.7-1.294.332-.094,8.185-2.257,6-1.656s11.926,46.562,10.9,50a8.793,8.793,0,0,0-.175,4.04A10.086,10.086,0,0,0,932.735,530.811Z" transform="translate(-636.035 -348.776)" fill="#2b87e0"/>
    <path id="Path_97" data-name="Path 97" d="M870.856,439s-4.224,4.526-1.026,7.048,5.3.241,5.3.241Z" transform="translate(-620.479 -324.245)" fill="#c7daf5"/>
    <path id="Path_98" data-name="Path 98" d="M870.856,439s-4.224,4.526-1.026,7.048,5.3.241,5.3.241Z" transform="translate(-620.479 -324.245)" opacity="0.1"/>
    <path id="Path_99" data-name="Path 99" d="M968.2,321.287s-.495.471-1.24,1.165c-1.062.993-2.634,2.444-4.028,3.66-1.931,1.68-3.524,2.914-2.954,1.862s.462-2.887.178-4.6c-.021-.115-.039-.229-.06-.341a31.645,31.645,0,0,0-.932-3.729,64.529,64.529,0,0,1,4.845-5.621c.643-.6,1.092-.851,1.119-.431a14.019,14.019,0,0,0,.977,3.132c.015.042.03.081.048.124.35.905.745,1.834,1.092,2.637C967.774,320.37,968.2,321.287,968.2,321.287Z" transform="translate(-683.693 -236.286)" fill="#ffb0b1"/>
    <path id="Path_100" data-name="Path 100" d="M966.15,316.51a8.954,8.954,0,0,1-6,6.867,31.428,31.428,0,0,0-.993-4.07s5.874-7.588,5.965-6.052A14.349,14.349,0,0,0,966.15,316.51Z" transform="translate(-683.693 -236.294)" opacity="0.1"/>
    <path id="Path_101" data-name="Path 101" d="M934.366,351.521l.76-1.071s.5,3.071,2.356,1.717,1.943,10.195,1.943,10.195l-1.988,29.727-14.367-.86.407-14.364,1.626-7.241,4.022-10.527,2.393-3.479Z" transform="translate(-658.492 -262.411)" opacity="0.1"/>
    <path id="Path_102" data-name="Path 102" d="M939.446,362.936l-1.81,26.879-.19,2.848-8.01-.48-.3-.018L923.1,391.8l.407-14.367,1.626-7.241,4.022-10.526,2.393-3.479,2.848-4.112.76-1.068s.5,3.071,2.356,1.717l.039-.027h0C939.362,351.553,939.446,362.936,939.446,362.936Z" transform="translate(-658.513 -262.802)" fill="#2b87e0"/>
    <path id="Path_103" data-name="Path 103" d="M887.418,406.26a2.2,2.2,0,0,1-2.169,1.264c-1.448-.244-1.445,5.431-1.445,5.431s-.962.905-1.626.121-2.414,1.868-2.414,1.868l-10.964.483s4.879,2.23,3.922,8.976c0,0,16.564-1.026,17.107-2.592S887.418,406.26,887.418,406.26Z" transform="translate(-620.595 -301.382)" fill="#fff"/>
    <path id="Path_104" data-name="Path 104" d="M887.418,406.26a2.2,2.2,0,0,1-2.169,1.264c-1.448-.244-1.445,5.431-1.445,5.431s-.962.905-1.626.121-2.414,1.868-2.414,1.868l-10.964.483s4.879,2.23,3.922,8.976c0,0,16.564-1.026,17.107-2.592S887.418,406.26,887.418,406.26Z" transform="translate(-620.595 -301.382)" opacity="0.03"/>
    <path id="Path_105" data-name="Path 105" d="M777.66,389.76l2.89,2.468,23.792,5-2.951-3.011Z" transform="translate(-542.7 -272.172)" fill="#fff"/>
    <path id="Path_106" data-name="Path 106" d="M920.794,350.621a60.86,60.86,0,0,0-2.471,6.39c-.787,2.248-1.445,4.224-1.445,4.224s-1.536,10-2.32,11.806-.359,8.855-.359,8.855L911.276,399.3s-1.325,8.976-3.37,14.337a26.108,26.108,0,0,1-4.336,7.829c.905-1.225,5.838-25.343,5.838-25.343l1.629-30.418s.238-2.89.48-5.361,5.129-5.844,5.129-5.844l4.713-6.7C921.832,348.434,921.515,349.538,920.794,350.621Z" transform="translate(-644.875 -260.56)" fill="#fff"/>
    <path id="Path_107" data-name="Path 107" d="M894.626,471.277s-6.939-.3-10.3-4.339,7.769-1.611,7.769-1.611l2.893.664Z" transform="translate(-630.996 -342.124)" fill="#ffb0b1"/>
    <path id="Path_108" data-name="Path 108" d="M968.509,441.942a8.793,8.793,0,0,0-.175,4.04,57.509,57.509,0,0,1-15.668-1.509,35.2,35.2,0,0,1-5.482,3.433l-2.166-26.852c-1.385-3.62-1.928-22.589-1.928-22.589s.124-.993.3-2.48a.286.286,0,0,1,.015-.112c.54-4.154,1.611-11.954,2.136-13.007.724-1.448-2.227-5.3-2.227-5.3l1.343-11.45.163-1.382c2.83-1.264,5-5.3,5-5.3l1.665-2.918h0c1.81-1.162,1.9,10.222,1.9,10.222l-1.81,26.879,6-1.656S969.531,438.509,968.509,441.942Z" transform="translate(-672.472 -266.589)" opacity="0.1"/>
    <path id="Path_109" data-name="Path 109" d="M977.115,427.155c-8.252,4.1-23.249.3-23.249.3a35.2,35.2,0,0,1-5.482,3.433l-2.169-26.852c-1.382-3.621-1.925-22.589-1.925-22.589s1.744-14.153,2.468-15.6a2.324,2.324,0,0,0-.142-1.726,21.838,21.838,0,0,1-1.321-10.1l.579-4.921.16-1.379c2.833-1.267,5-5.3,5-5.3l1.509-2.643,2.776-4.87,1.315-2.305.223.2,1.7,1.545,1.81,1.509c2.362,1.991,6.444,5.5,8.55,7.642,1.853,1.889,2.438,9.235,2.607,14.766.112,3.642.045,6.5.045,6.5-1.868,3.074,3.017,27.757,3.017,27.757C975.731,397.286,977.115,427.155,977.115,427.155Z" transform="translate(-673.31 -249.946)" fill="#fff"/>
    <path id="Path_110" data-name="Path 110" d="M941.823,363.955s-5.663,10.78-5.005,14.877,2.528,8.734,1.626,9.818a3.334,3.334,0,0,1-2.652,1.324,8.719,8.719,0,0,0-3.319,1.928c0,.181-2.23.181-4.224,1.026a26.3,26.3,0,0,1-4.939,1.324s-5.732-.181-6.266.362-1.083,3.792.06,6.384,2.414,4.526,3.373,4.879,7.048-1.687,11.987-2.169,10.3-4.4,10.3-4.4,5.9-2.112,6.939-5.663-1.264-23.068-1.264-23.068S946.7,361.484,941.823,363.955Z" transform="translate(-653.857 -271.544)" opacity="0.03"/>
    <path id="Path_111" data-name="Path 111" d="M939.444,360.957s-5.663,10.783-5,14.877,2.528,8.734,1.623,9.821a3.319,3.319,0,0,1-2.649,1.324,8.719,8.719,0,0,0-3.319,1.928c0,.181-2.23.181-4.224,1.023a26.559,26.559,0,0,1-4.939,1.324s-5.732-.181-6.263.362-1.086,3.8.06,6.384,2.414,4.526,3.373,4.879,7.048-1.687,11.987-2.166,10.3-4.4,10.3-4.4,5.9-2.112,6.924-5.66-1.264-23.071-1.264-23.071S944.322,358.489,939.444,360.957Z" transform="translate(-652.201 -269.451)" opacity="0.03"/>
    <path id="Path_112" data-name="Path 112" d="M941.247,362.165s-5.663,10.783-5,14.877,2.528,8.734,1.626,9.818a3.319,3.319,0,0,1-2.652,1.328,8.758,8.758,0,0,0-3.319,1.925c0,.178-2.227.181-4.224,1.026a26.355,26.355,0,0,1-4.939,1.325s-5.732-.181-6.266.362-1.083,3.8.06,6.384,2.414,4.526,3.373,4.879,7.048-1.687,11.987-2.169,10.3-4.4,10.3-4.4,5.9-2.112,6.939-5.663-1.249-23.068-1.249-23.068S946.123,359.709,941.247,362.165Z" transform="translate(-653.459 -270.297)" fill="#fff"/>
    <path id="Path_113" data-name="Path 113" d="M991.99,458.377s-4.526-.905-2.951.6,1.566,2.83,3.494,2.77S991.99,458.377,991.99,458.377Z" transform="translate(-704.326 -337.587)" opacity="0.1"/>
    <path id="Path_114" data-name="Path 114" d="M1023.7,566.58s-2.046,1.385,1.868,4.577S1023.7,566.58,1023.7,566.58Z" transform="translate(-728.39 -413.333)" opacity="0.1"/>
    <path id="Path_115" data-name="Path 115" d="M1011.8,604.31c0,.181-.724,6.638,1.985,8.252S1011.8,604.31,1011.8,604.31Z" transform="translate(-720.388 -439.68)" opacity="0.1"/>
    <path id="Path_116" data-name="Path 116" d="M857.518,436.59c-2.184.075-6.9.742-4.456,5.307,2.163,4.04,5.8,1.34,7.844-.709A7.709,7.709,0,0,0,857.518,436.59Z" transform="translate(-609.127 -322.562)" fill="#ffb0b1"/>
    <path id="Path_117" data-name="Path 117" d="M881.39,451Z" transform="translate(-629.387 -332.624)" fill="#ffb0b1"/>
    <path id="Path_118" data-name="Path 118" d="M880.74,451.494l.09-.094Z" transform="translate(-628.933 -332.903)" fill="#ffb0b1"/>
    <path id="Path_119" data-name="Path 119" d="M964.04,336.451c-2.317,1.584-4.26,2.921-4.64,3.2-1.038.769-3.017,5.286-4.293,7.591-1.017,1.855-4.32,2.332-5.567,2.45l.16-1.379c2.833-1.267,5-5.3,5-5.3l5.6-9.818,1.928,1.753Z" transform="translate(-676.976 -250.358)" opacity="0.1"/>
    <path id="Path_120" data-name="Path 120" d="M964.04,335.851c-2.317,1.584-4.26,2.921-4.64,3.2-1.038.766-3.017,5.283-4.293,7.588-1.017,1.855-4.32,2.332-5.567,2.45l.16-1.379c2.833-1.267,5-5.3,5-5.3l5.6-9.818,1.928,1.747S962.954,334.934,964.04,335.851Z" transform="translate(-676.976 -249.939)" fill="#dce7ff"/>
    <path id="Path_121" data-name="Path 121" d="M941.394,297.211a8.949,8.949,0,1,1-7.607-8.846A8.934,8.934,0,0,1,941.394,297.211Z" transform="translate(-658.789 -218.986)" fill="#ffb0b1"/>
    <path id="Path_122" data-name="Path 122" d="M958.515,327.305a7.954,7.954,0,0,1-2.887-3.1,8.168,8.168,0,0,0-1.7-2.851,7.544,7.544,0,0,0-2.776-1.071c-3.174-.938-5.835-3.835-5.935-7.141-.048-1.557.438-3.111.217-4.652a5.153,5.153,0,0,0-1.008-2.4,8.257,8.257,0,0,0-.872-.938c-.422-.4-.866-.784-1.252-1.207a4.689,4.689,0,0,1-.634-.86,4.137,4.137,0,0,1-.347-.8c-.6-1.846-.054-4.037-.718-5.9l-.036-.1A1.921,1.921,0,0,0,939.1,294.9c-.709-.051-1.315.537-1.991.8-1.415.549-2.942-.386-4.121-1.34s-2.51-2.043-4.01-1.831a12.952,12.952,0,0,0-2.691,1.168,3.77,3.77,0,0,1-.637.184,8.946,8.946,0,0,1,17.248,3.334,8.855,8.855,0,0,1-.2,1.868c.015.042.03.081.048.124.35.905.745,1.834,1.092,2.637l1.7,1.545,1.81,1.509c2.362,1.991,6.444,5.5,8.55,7.642C957.76,314.431,958.34,321.775,958.515,327.305Z" transform="translate(-660.293 -218.985)" opacity="0.1"/>
    <path id="Path_123" data-name="Path 123" d="M921.679,272.29c.431-.878.646-1.862,1.161-2.694a6.42,6.42,0,0,1,3.436-2.447c3.545-1.222,11.036-3,13.275,0a6.533,6.533,0,0,0,1.415,1.69,10.506,10.506,0,0,0,1.536.691,5.869,5.869,0,0,1,2.824,3.62c.486,1.49.631,3.089.987,4.625a34.018,34.018,0,0,0,2.052,5.693c.938,2.19,1.934,4.462,3.744,6.01,2.471,2.112,3.017,5.1,5.31,7.419,2.715,2.752,2.628,7.292,1.228,10.9a2.992,2.992,0,0,0-.32,1.472,2.887,2.887,0,0,0,.8,1.364l1.484,1.674a8.347,8.347,0,0,1-9.121-4.206,8.158,8.158,0,0,0-1.7-2.851,7.526,7.526,0,0,0-2.773-1.068c-3.174-.941-5.835-3.841-5.935-7.147-.048-1.554.438-3.108.217-4.646a5.128,5.128,0,0,0-1.011-2.414c-.83-1.083-2.082-1.81-2.758-3.017-1.143-2.018-.275-4.64-1.1-6.806a1.925,1.925,0,0,0-1.469-1.379c-.709-.051-1.315.537-1.994.8-1.412.549-2.939-.383-4.118-1.34s-2.51-2.043-4.013-1.828a12.616,12.616,0,0,0-2.688,1.168c-.676.259-2.046.492-2.637-.078C918.263,276.342,921.157,273.365,921.679,272.29Z" transform="translate(-655.791 -203.093)" fill="#591d4b"/>
    <path id="Path_124" data-name="Path 124" d="M952.178,313.9a8.163,8.163,0,0,0-1.7-2.848,7.525,7.525,0,0,0-2.776-1.071c-3.171-.938-5.832-3.838-5.935-7.144-.048-1.554.438-3.111.22-4.649a5.159,5.159,0,0,0-1.011-2.4c-.833-1.083-2.085-1.81-2.758-3.017-1.144-2.015-.275-4.637-1.1-6.806a1.931,1.931,0,0,0-1.466-1.379c-.706-.054-1.318.54-1.994.8-1.412.549-2.942-.386-4.118-1.34s-2.513-2.043-4.013-1.831a12.858,12.858,0,0,0-2.688,1.168c-.676.259-2.049.495-2.64-.075-1.243-1.207,1.65-4.179,2.169-5.247a28.893,28.893,0,0,1,1.164-2.694c.027-.045.057-.091.088-.136a4.791,4.791,0,0,0-.993,1.128,29.316,29.316,0,0,0-1.162,2.694c-.522,1.068-3.415,4.049-2.169,5.247.6.573,1.961.338,2.637.078a12.423,12.423,0,0,1,2.688-1.168c1.508-.214,2.836.875,4.013,1.828s2.715,1.889,4.121,1.34c.676-.262,1.267-.854,1.991-.8a1.921,1.921,0,0,1,1.469,1.379c.824,2.166-.045,4.788,1.1,6.806.676,1.186,1.928,1.928,2.758,3.017a5.128,5.128,0,0,1,1.011,2.414c.22,1.539-.266,3.092-.217,4.646.1,3.319,2.761,6.206,5.935,7.147a7.566,7.566,0,0,1,2.773,1.068,7.979,7.979,0,0,1,1.7,2.851,8.347,8.347,0,0,0,9.121,4.206l-.7-.791A8.437,8.437,0,0,1,952.178,313.9Z" transform="translate(-655.64 -209.885)" opacity="0.1"/>
    <path id="Path_125" data-name="Path 125" d="M950.437,351.151a60.874,60.874,0,0,0-2.471,6.39c-.884-.344-1.687-2.537-1.687-2.537l4.713-6.7C951.475,348.964,951.159,350.065,950.437,351.151Z" transform="translate(-674.699 -260.909)" opacity="0.1"/>
    <path id="Path_126" data-name="Path 126" d="M951.037,350.558a60.875,60.875,0,0,0-2.471,6.39c-.884-.341-1.687-2.537-1.687-2.537l4.713-6.7C952.075,348.371,951.758,349.475,951.037,350.558Z" transform="translate(-675.118 -260.497)" fill="#dce7ff"/>
    <path id="Path_127" data-name="Path 127" d="M863.708,437.916l-2.613-8.24a.769.769,0,0,1,.5-.968h0a.772.772,0,0,1,.965.5l2.613,8.231-.26,1.723Z" transform="translate(-615.189 -317.033)" fill="#be8b87"/>
    <path id="Path_128" data-name="Path 128" d="M861.63,428.981h0a.772.772,0,0,1,.968.5l2.613,8.231-.2,1.291.19.2.259-1.723-2.628-8.231a.772.772,0,0,0-.965-.5h0a.772.772,0,0,0-.4.3,1.055,1.055,0,0,1,.16-.069Z" transform="translate(-615.477 -317.061)" fill="#fff" opacity="0.1"/>
    <path id="Path_129" data-name="Path 129" d="M822.6,399.6l1.466-.465-.214,1.412-.045.311-.428-.447Z" transform="translate(-574.082 -278.722)" fill="#efc8c4"/>
    <path id="Path_130" data-name="Path 130" d="M872.42,461.771a.3.3,0,0,1,.094-.078.133.133,0,0,1,.142,0,.377.377,0,0,1,.051.081.26.26,0,0,0,.187.124l-.045.3Z" transform="translate(-623.123 -340.076)" fill="#727a9c"/>
    <path id="Path_131" data-name="Path 131" d="M861.13,441.7s5.241-.03,4.007,2.2a4.713,4.713,0,0,1-3.162,2.5Z" transform="translate(-615.24 -326.13)" fill="#ffb0b1"/>
    <path id="Path_132" data-name="Path 132" d="M593.533,110.05h-.226a25.806,25.806,0,0,0-21.545,11.794,25.806,25.806,0,0,0-21.545-11.794h-.226a25.645,25.645,0,0,0-25.4,25.63c0,8.39,3.675,20.3,10.84,30.092,13.652,18.667,36.331,35,36.331,35s22.679-16.328,36.328-35c7.169-9.8,10.84-21.7,10.84-30.092a25.645,25.645,0,0,0-25.4-25.63ZM590.3,167.208a5.084,5.084,0,0,1-4.728-3.264h-5.382a1.7,1.7,0,0,1-1.6-1.159L576.93,157.8l-5.232,18.28a1.693,1.693,0,0,1-1.623,1.222h-.106a1.671,1.671,0,0,1-1.569-1.4l-5.391-32.427-3.94,19.188a1.681,1.681,0,0,1-1.632,1.276h-7.582a1.687,1.687,0,1,1,0-3.37h6.254l5.582-25.8a1.693,1.693,0,0,1,3.319.139l5.506,33.079,4.689-16.355a1.659,1.659,0,0,1,1.578-1.207h.033a1.683,1.683,0,0,1,1.6,1.159l2.99,8.994h4.1a5.057,5.057,0,1,1,4.8,6.638Z" transform="translate(-380.236 -94.541)" fill="#e43f5a"/>
  </g>
</svg>
